<svg width="99.165817mm" height="37.782558mm" viewBox="0 0 99.165817 37.782558" version="1.1" xmlns="http://www.w3.org/2000/svg"><path d="M 16.668754,37.782564 4.23333,4.656707 H 4.021663 Q 4.180413,6.297125 4.286246,9.10171 4.39208,11.853378 4.39208,14.86963 V 37.782564 H -6e-6 V 3.8e-5 h 7.037921 l 11.641673,30.956266 h 0.211667 L 30.744595,3.8e-5 h 6.985003 V 37.782564 H 33.020014 V 14.55213 q 0,-2.751669 0.105833,-5.45042 0.15875,-2.698752 0.264583,-4.392086 h -0.211666 l -12.594175,33.07294 z m 36.089164,0 h -4.7625 V 3.8e-5 h 21.11376 v 4.180419 h -16.35126 v 13.387924 h 15.34584 v 4.18042 h -15.34584 z m 34.66039,0 h -4.76251 V 4.180457 H 70.855378 V 3.8e-5 h 28.31043 v 4.180419 h -11.7475 z" /></svg>